<svg xmlns="http://www.w3.org/2000/svg" id="Capa_1" height="512" viewBox="0 0 609.62 609.62" width="512"><g><g id="Page-1_60_"><g id="_x30_61---Road-Blocks"><path id="Shape_158_" d="m335.291 71.122c0-16.834-13.647-30.481-30.481-30.481s-30.481 13.647-30.481 30.481 13.647 30.481 30.481 30.481 30.481-13.646 30.481-30.481zm-40.641 0c0-5.611 4.549-10.16 10.16-10.16s10.16 4.549 10.16 10.16-4.549 10.16-10.16 10.16-10.16-4.548-10.16-10.16z"></path><path id="Shape_157_" d="m71.122 335.291c-16.834 0-30.481 13.647-30.481 30.481v125.988c.002 2.004-.592 3.963-1.707 5.629l-13.534 20.178c-3.332 5.011-5.1 10.899-5.08 16.917v54.816c0 11.223 9.098 20.321 20.321 20.321h104.438c8.755.012 16.534-5.584 19.305-13.889l5.507-16.592h56.471l5.527 16.592c2.769 8.298 10.537 13.893 19.284 13.889h107.273c8.755.012 16.534-5.584 19.305-13.889l5.507-16.592h56.471l5.527 16.592c2.769 8.298 10.537 13.893 19.284 13.889h104.438c11.223 0 20.321-9.098 20.321-20.321v-54.866c.021-6.015-1.747-11.9-5.08-16.907l-13.503-20.25c-1.101-1.632-1.705-3.549-1.737-5.517v-125.988c0-16.834-13.647-30.481-30.481-30.481h-28.083l-178.385-89.197c11.213-7.016 19.197-18.181 22.211-31.06 5.478-23.183-5.816-47.071-27.209-57.548-6.197-2.806-10.579-8.527-11.674-15.241h10.414c9.031-.004 17.593-4.021 23.369-10.963l40.052-47.967c4.581-5.47 7.098-12.373 7.112-19.508v-33.326c-.001-16.834-13.648-30.481-30.482-30.481h-121.975c-16.834 0-30.481 13.647-30.481 30.481v33.285c.013 7.147 2.529 14.064 7.112 19.548l40.001 47.987c5.772 6.948 14.336 10.969 23.369 10.973h10.983c1.11 14.572 10.021 27.401 23.287 33.529 12.882 6.36 19.651 20.786 16.307 34.759-3.653 15.023-17.975 24.931-33.321 23.052-15.346-1.878-26.855-14.948-26.777-30.409 0-5.611-4.549-10.16-10.16-10.16s-10.16 4.549-10.16 10.16c-.499 17.535 8.599 33.948 23.735 42.816l-178.537 89.27zm204.914-217.025-39.991-47.987c-1.519-1.831-2.353-4.134-2.357-6.513v-33.285c0-5.611 4.549-10.16 10.16-10.16h121.924c5.611 0 10.16 4.549 10.16 10.16v33.285c.002 2.375-.829 4.676-2.347 6.503l-40.011 48.008c-1.931 2.313-4.79 3.649-7.803 3.648h-41.922c-3.018.001-5.881-1.339-7.813-3.659zm272.622 247.506v125.988c-.021 6.015 1.747 11.9 5.08 16.907l13.503 20.25c1.106 1.665 1.696 3.62 1.697 5.619v54.764h-104.397l-5.527-16.592c-2.769-8.298-10.537-13.893-19.284-13.889h-56.471c-8.755-.012-16.534 5.584-19.305 13.889l-5.507 16.592h-107.273l-5.527-16.592c-2.769-8.298-10.537-13.893-19.284-13.889h-56.471c-8.755-.012-16.534 5.584-19.305 13.889l-5.507 16.592h-104.439v-54.866c-.002-2.004.592-3.963 1.707-5.629l13.534-20.178c3.322-4.997 5.09-10.866 5.08-16.866v-125.989c0-5.611 4.549-10.16 10.16-10.16h467.375c5.612 0 10.161 4.549 10.161 10.16zm-243.848-110.565 160.168 80.084h-320.335z"></path><path id="Path_68_" clip-rule="evenodd" d="m121.924 375.932h-30.481c-5.611 0-10.16 4.549-10.16 10.16v30.481c0 5.611 4.549 10.16 10.16 10.16s10.16-4.549 10.16-10.16v-20.321h20.321c5.611 0 10.16-4.549 10.16-10.16s-4.549-10.16-10.16-10.16z" fill-rule="evenodd"></path></g></g></g></svg>
